<svg version="1.1" xmlns="http://www.w3.org/2000/svg" xmlns:xlink="http://www.w3.org/1999/xlink" x="0px" y="0px" viewBox="0 0 40 40" style="enable-background:new 0 0 40 40;" xml:space="preserve">
<g>
	<path style="fill:#8BB7F0;" d="M20,23.5c-1.93,0-3.5-1.57-3.5-3.5s1.57-3.5,3.5-3.5s3.5,1.57,3.5,3.5S21.93,23.5,20,23.5z"></path>
	<path style="fill:#4E7AB5;" d="M20,17c1.654,0,3,1.346,3,3s-1.346,3-3,3s-3-1.346-3-3S18.346,17,20,17 M20,16c-2.209,0-4,1.791-4,4
		s1.791,4,4,4s4-1.791,4-4S22.209,16,20,16L20,16z"></path>
</g>
<g>
	<path style="fill:#8BB7F0;" d="M35,23.5c-1.93,0-3.5-1.57-3.5-3.5s1.57-3.5,3.5-3.5s3.5,1.57,3.5,3.5S36.93,23.5,35,23.5z"></path>
	<path style="fill:#4E7AB5;" d="M35,17c1.654,0,3,1.346,3,3s-1.346,3-3,3s-3-1.346-3-3S33.346,17,35,17 M35,16c-2.209,0-4,1.791-4,4
		s1.791,4,4,4s4-1.791,4-4S37.209,16,35,16L35,16z"></path>
</g>
<g>
	<path style="fill:#8BB7F0;" d="M5,23.5c-1.93,0-3.5-1.57-3.5-3.5s1.57-3.5,3.5-3.5s3.5,1.57,3.5,3.5S6.93,23.5,5,23.5z"></path>
	<path style="fill:#4E7AB5;" d="M5,17c1.654,0,3,1.346,3,3s-1.346,3-3,3s-3-1.346-3-3S3.346,17,5,17 M5,16c-2.209,0-4,1.791-4,4
		s1.791,4,4,4s4-1.791,4-4S7.209,16,5,16L5,16z"></path>
</g>
</svg>