<svg version="1.1" xmlns="http://www.w3.org/2000/svg" xmlns:xlink="http://www.w3.org/1999/xlink" x="0px" y="0px" viewBox="0 0 40 40" style="enable-background:new 0 0 40 40;" xml:space="preserve">
<path style="fill:#66798F;" d="M38.5,33h-37C1.225,33,1,32.775,1,32.5l0,0C1,32.225,1.225,32,1.5,32h37c0.275,0,0.5,0.225,0.5,0.5
	l0,0C39,32.775,38.775,33,38.5,33z"></path>
<path style="fill:#66798F;" d="M1.5,20h37c0.275,0,0.5,0.225,0.5,0.5l0,0c0,0.275-0.225,0.5-0.5,0.5h-37C1.225,21,1,20.775,1,20.5
	l0,0C1,20.225,1.225,20,1.5,20z"></path>
<path style="fill:#66798F;" d="M38.5,8h-37C1.225,8,1,7.775,1,7.5v0C1,7.225,1.225,7,1.5,7h37C38.775,7,39,7.225,39,7.5v0
	C39,7.775,38.775,8,38.5,8z"></path>
<g>
	<circle style="fill:#BAE0BD;" cx="17.5" cy="7.5" r="3"></circle>
	<path style="fill:#5E9C76;" d="M17.5,5C18.878,5,20,6.122,20,7.5S18.878,10,17.5,10S15,8.879,15,7.5S16.122,5,17.5,5 M17.5,4
		C15.567,4,14,5.567,14,7.5c0,1.933,1.567,3.5,3.5,3.5c1.933,0,3.5-1.567,3.5-3.5C21,5.567,19.433,4,17.5,4L17.5,4z"></path>
</g>
<g>
	<circle style="fill:#BAE0BD;" cx="31.5" cy="20.5" r="3"></circle>
	<path style="fill:#5E9C76;" d="M31.5,18c1.378,0,2.5,1.122,2.5,2.5S32.879,23,31.5,23c-1.378,0-2.5-1.122-2.5-2.5
		S30.122,18,31.5,18 M31.5,17c-1.933,0-3.5,1.567-3.5,3.5s1.567,3.5,3.5,3.5c1.933,0,3.5-1.567,3.5-3.5S33.433,17,31.5,17L31.5,17z"></path>
</g>
<g>
	<circle style="fill:#BAE0BD;" cx="11.5" cy="32.5" r="3"></circle>
	<path style="fill:#5E9C76;" d="M11.5,30c1.378,0,2.5,1.122,2.5,2.5c0,1.378-1.122,2.5-2.5,2.5S9,33.878,9,32.5
		C9,31.122,10.122,30,11.5,30 M11.5,29C9.567,29,8,30.567,8,32.5c0,1.933,1.567,3.5,3.5,3.5s3.5-1.567,3.5-3.5
		C15,30.567,13.433,29,11.5,29L11.5,29z"></path>
</g>
</svg>