<svg version="1.1" xmlns="http://www.w3.org/2000/svg" xmlns:xlink="http://www.w3.org/1999/xlink" x="0px" y="0px" viewBox="0 0 40 40" style="enable-background:new 0 0 40 40;" xml:space="preserve">
<g>
	<rect x="3.5" y="3.5" style="fill:#FFFFFF;" width="8" height="8"></rect>
	<path style="fill:#788B9C;" d="M11,4v7H4V4H11 M12,3H3v9h9V3L12,3z"></path>
</g>
<g>
	<rect x="11.5" y="3.5" style="fill:#FFFFFF;" width="8" height="8"></rect>
	<path style="fill:#788B9C;" d="M19,4v7h-7V4H19 M20,3h-9v9h9V3L20,3z"></path>
</g>
<g>
	<rect x="19.5" y="3.5" style="fill:#FFFFFF;" width="8" height="8"></rect>
	<path style="fill:#788B9C;" d="M27,4v7h-7V4H27 M28,3h-9v9h9V3L28,3z"></path>
</g>
<g>
	<rect x="27.5" y="3.5" style="fill:#FFFFFF;" width="8" height="8"></rect>
	<path style="fill:#788B9C;" d="M35,4v7h-7V4H35 M36,3h-9v9h9V3L36,3z"></path>
</g>
<g>
	<rect x="3.5" y="11.5" style="fill:#FFFFFF;" width="8" height="8"></rect>
	<path style="fill:#788B9C;" d="M11,12v7H4v-7H11 M12,11H3v9h9V11L12,11z"></path>
</g>
<g>
	<rect x="11.5" y="11.5" style="fill:#FFFFFF;" width="8" height="8"></rect>
	<path style="fill:#788B9C;" d="M19,12v7h-7v-7H19 M20,11h-9v9h9V11L20,11z"></path>
</g>
<g>
	<rect x="19.5" y="11.5" style="fill:#FFFFFF;" width="8" height="8"></rect>
	<path style="fill:#788B9C;" d="M27,12v7h-7v-7H27 M28,11h-9v9h9V11L28,11z"></path>
</g>
<g>
	<rect x="27.5" y="11.5" style="fill:#FFFFFF;" width="8" height="8"></rect>
	<path style="fill:#788B9C;" d="M35,12v7h-7v-7H35 M36,11h-9v9h9V11L36,11z"></path>
</g>
<g>
	<rect x="3.5" y="19.5" style="fill:#FFFFFF;" width="8" height="8"></rect>
	<path style="fill:#788B9C;" d="M11,20v7H4v-7H11 M12,19H3v9h9V19L12,19z"></path>
</g>
<g>
	<rect x="11.5" y="19.5" style="fill:#FFFFFF;" width="8" height="8"></rect>
	<path style="fill:#788B9C;" d="M19,20v7h-7v-7H19 M20,19h-9v9h9V19L20,19z"></path>
</g>
<g>
	<rect x="19.5" y="19.5" style="fill:#FFFFFF;" width="8" height="8"></rect>
	<path style="fill:#788B9C;" d="M27,20v7h-7v-7H27 M28,19h-9v9h9V19L28,19z"></path>
</g>
<g>
	<rect x="27.5" y="19.5" style="fill:#FFFFFF;" width="8" height="8"></rect>
	<path style="fill:#788B9C;" d="M35,20v7h-7v-7H35 M36,19h-9v9h9V19L36,19z"></path>
</g>
<g>
	<rect x="3.5" y="27.5" style="fill:#FFFFFF;" width="8" height="8"></rect>
	<path style="fill:#788B9C;" d="M11,28v7H4v-7H11 M12,27H3v9h9V27L12,27z"></path>
</g>
<g>
	<rect x="11.5" y="27.5" style="fill:#FFFFFF;" width="8" height="8"></rect>
	<path style="fill:#788B9C;" d="M19,28v7h-7v-7H19 M20,27h-9v9h9V27L20,27z"></path>
</g>
<g>
	<rect x="19.5" y="27.5" style="fill:#FFFFFF;" width="8" height="8"></rect>
	<path style="fill:#788B9C;" d="M27,28v7h-7v-7H27 M28,27h-9v9h9V27L28,27z"></path>
</g>
<g>
	<rect x="27.5" y="27.5" style="fill:#FFFFFF;" width="8" height="8"></rect>
	<path style="fill:#788B9C;" d="M35,28v7h-7v-7H35 M36,27h-9v9h9V27L36,27z"></path>
</g>
</svg>